<?xml version="1.0" encoding="UTF-8"?>
<svg style="clip-rule:evenodd;fill-rule:evenodd;stroke-linejoin:round;stroke-miterlimit:2" version="1.1" viewBox="0 0 110 133" xml:space="preserve" xmlns="http://www.w3.org/2000/svg">
    <path d="m94.18 118.93h-76.51c-9.74 0-17.67-7.93-17.67-17.67v-99.26c0-1.1 0.9-2 2-2h76.51c9.74 0 17.67 7.93 17.67 17.67v99.26c0 1.1-0.9 2-2 2zm-90.18-114.93v97.26c0 7.54 6.13 13.67 13.67 13.67h74.51v-97.26c0-7.54-6.13-13.67-13.67-13.67z" style="fill-rule:nonzero;fill:currentColor"/><path d="m107.5 132.19h-76.48c-5.86 0-11.34-2.89-14.64-7.72-0.62-0.91-0.39-2.16 0.52-2.78s2.16-0.39 2.78 0.52c2.56 3.74 6.8 5.98 11.34 5.98h74.48v-97.29c0-4.32-1.99-8.29-5.46-10.9-0.88-0.66-1.06-1.92-0.4-2.8s1.92-1.06 2.8-0.4c4.49 3.37 7.06 8.51 7.06 14.1v99.29c0 1.11-0.89 2-2 2z" style="fill-rule:nonzero;fill:currentColor"/><path d="m94.18 118.93h-76.51c-9.74 0-17.67-7.93-17.67-17.67v-99.26c0-1.1 0.9-2 2-2h76.51c9.74 0 17.67 7.93 17.67 17.67v99.26c0 1.1-0.9 2-2 2zm-90.18-114.93v97.26c0 7.54 6.13 13.67 13.67 13.67h74.51v-97.26c0-7.54-6.13-13.67-13.67-13.67z" style="fill-rule:nonzero;fill:currentColor"/><path d="m77.74 22.35h-59.3c-1.1 0-2-0.9-2-2s0.9-2 2-2h59.3c1.1 0 2 0.9 2 2s-0.89 2-2 2z" style="fill-rule:nonzero;fill:currentColor"/><path d="m77.74 37.29h-59.3c-1.1 0-2-0.9-2-2s0.9-2 2-2h59.3c1.1 0 2 0.9 2 2s-0.89 2-2 2z" style="fill-rule:nonzero;fill:currentColor"/><path d="m77.74 52.24h-59.3c-1.1 0-2-0.9-2-2s0.9-2 2-2h59.3c1.1 0 2 0.9 2 2s-0.89 2-2 2z" style="fill-rule:nonzero;fill:currentColor"/><path d="m77.74 67.19h-59.3c-1.1 0-2-0.9-2-2s0.9-2 2-2h59.3c1.1 0 2 0.9 2 2s-0.89 2-2 2z" style="fill-rule:nonzero;fill:currentColor"/><path d="m48.09 97.08h-29.65c-1.1 0-2-0.9-2-2s0.9-2 2-2h29.65c1.1 0 2 0.9 2 2s-0.9 2-2 2z" style="fill-rule:nonzero;fill:currentColor"/><path d="m77.74 82.14h-59.3c-1.1 0-2-0.9-2-2s0.9-2 2-2h59.3c1.1 0 2 0.9 2 2s-0.89 2-2 2z" style="fill-rule:nonzero;fill:currentColor"/><path d="m77.74 97.09c-0.26 0-0.52-0.05-0.76-0.15-0.25-0.1-0.46-0.25-0.65-0.44-0.1-0.09-0.18-0.2-0.25-0.3-0.08-0.11-0.14-0.23-0.19-0.35s-0.08-0.24-0.11-0.37-0.04-0.26-0.04-0.39 0.02-0.26 0.04-0.39c0.03-0.13 0.07-0.26 0.12-0.38s0.11-0.23 0.18-0.34 0.16-0.22 0.25-0.31 0.19-0.17 0.3-0.25c0.11-0.07 0.23-0.13 0.35-0.18s0.24-0.09 0.37-0.11c0.26-0.06 0.52-0.06 0.78 0 0.13 0.02 0.26 0.06 0.38 0.11s0.23 0.11 0.34 0.18c0.11 0.08 0.21 0.16 0.31 0.25 0.09 0.09 0.17 0.2 0.24 0.31 0.08 0.11 0.14 0.22 0.19 0.34s0.09 0.25 0.11 0.38c0.03 0.13 0.04 0.26 0.04 0.39s-0.01 0.26-0.04 0.39c-0.02 0.13-0.06 0.25-0.11 0.37s-0.11 0.24-0.18 0.35c-0.08 0.1-0.16 0.21-0.25 0.3-0.38 0.38-0.88 0.59-1.42 0.59z" style="fill-rule:nonzero;fill:currentColor"/><path d="m68.61 97.09c-0.54 0-1.04-0.21-1.42-0.59-0.09-0.09-0.17-0.2-0.25-0.3-0.07-0.11-0.13-0.23-0.18-0.35s-0.09-0.24-0.11-0.37c-0.03-0.13-0.04-0.26-0.04-0.39s0.01-0.26 0.04-0.39c0.02-0.13 0.06-0.26 0.11-0.38s0.11-0.23 0.19-0.34c0.07-0.11 0.15-0.22 0.24-0.31 0.1-0.09 0.2-0.17 0.31-0.25 0.11-0.07 0.22-0.13 0.34-0.18 0.13-0.05 0.25-0.09 0.38-0.11 0.26-0.06 0.52-0.06 0.78 0 0.13 0.02 0.25 0.06 0.37 0.11s0.24 0.11 0.35 0.18c0.11 0.08 0.21 0.16 0.3 0.25 0.1 0.09 0.18 0.2 0.25 0.31s0.14 0.22 0.19 0.34 0.09 0.25 0.11 0.38c0.03 0.13 0.04 0.26 0.04 0.39s-0.01 0.26-0.04 0.39c-0.02 0.13-0.06 0.25-0.11 0.37s-0.11 0.24-0.19 0.35c-0.07 0.1-0.15 0.21-0.25 0.3-0.37 0.38-0.88 0.59-1.41 0.59z" style="fill-rule:nonzero;fill:currentColor"/>
</svg>
