<?xml version="1.0" encoding="UTF-8"?>
<svg style="clip-rule:evenodd;fill-rule:evenodd;stroke-linejoin:round;stroke-miterlimit:2" version="1.1" viewBox="0 0 140 140" xml:space="preserve" xmlns="http://www.w3.org/2000/svg">
    <g transform="translate(-1117.7 -470.39)">
        <path d="m1256.9 485.41c0-9.12-5.91-15.02-15.05-15.02h-109.02c-9.21 0-15.17 5.93-15.17 15.11-0.01 36.35 0 72.7 0 109.05 0 9.19 5.95 15.12 15.16 15.12h108.82c9.42 0 15.27-5.83 15.27-15.22v-70.66c0-12.79 0-25.58-0.01-38.38zm-8.29 109.1c0 4.81-2.07 6.86-6.92 6.86h-108.84c-4.84 0-6.91-2.05-6.91-6.87v-108.86c0-4.95 2.03-6.96 7.02-6.96h108.63c4.98 0 7.02 2.02 7.02 6.97v108.86z" style="fill-rule:nonzero;fill:currentColor"/>
    
    
        <path d="m1229.4 538.61c-1.4-6.66-4.82-10.81-10.48-12.69-3.42-1.14-7.07-1.51-11.13-1.13-5.87 0.55-10.27 3.08-13.44 7.74-0.21 0.3-0.45 0.57-0.8 0.96l-4.68 5.23v-12.53h-13.41v57.13h14.29c0-2.72-0.01-5.43-0.01-8.14-0.02-7.2-0.04-14.65 0.14-21.99 0.08-3.16 0.84-6.62 2.15-9.74 2.02-4.8 7.23-7.32 13.59-6.55 5.31 0.64 8.59 3.71 9.77 9.14 0.51 2.38 0.79 4.93 0.81 7.58 0.06 7.27 0.05 14.54 0.05 21.81v7.95h14.43l0.01-8.42c0.01-8.62 0.03-17.53-0.09-26.29-0.05-3.12-0.45-6.51-1.2-10.06z" style="fill-rule:nonzero;fill:currentColor"/>
    
    
        <rect x="1144" y="526.17" width="14.37" height="57.22" style="fill:currentColor"/>
    
    
        <path d="m1150.9 494.78h-0.02c-4.9 0.01-8.77 3.86-8.81 8.76-0.02 2.38 0.89 4.61 2.55 6.29 1.66 1.67 3.89 2.59 6.27 2.59h0.02c4.9-0.01 8.76-3.86 8.8-8.76 0.02-2.38-0.89-4.62-2.55-6.29-1.65-1.67-3.88-2.59-6.26-2.59z" style="fill-rule:nonzero;fill:currentColor"/>
    </g>
</svg>
