<?xml version="1.0" encoding="UTF-8"?>
<svg style="clip-rule:evenodd;fill-rule:evenodd;stroke-linejoin:round;stroke-miterlimit:2" version="1.1" fill="none" viewBox="0 0 140 140" xml:space="preserve" xmlns="http://www.w3.org/2000/svg">
    <g transform="translate(-672.69 -468.5)">
        <path d="m811.84 507.55c-0.01-2.81-0.3-5.51-0.86-8.01-4.14-18.41-19.59-30.85-38.43-30.97-15.49-0.1-31.25-0.07-46.49-0.04l-14.08 0.02c-1.62 0-3.33 0.12-5.08 0.34-19.12 2.42-33.79 18.71-34.12 37.9-0.13 7.17-0.09 14.48-0.06 21.55 0.01 3.26 0.03 6.53 0.03 9.79l-0.03 2.4v5.22c0 7.19-0.01 14.38 0.02 21.57 0.01 2.35 0.13 4.4 0.36 6.28 2.31 18.84 18.76 33.78 37.46 34 17.09 0.21 34.48 0.13 51.3 0.07l11.96-0.04c2.24-0.01 4.6-0.28 7-0.82 18.41-4.12 30.88-19.47 31.04-38.19 0.16-18.69 0.09-37.7 0.02-56.08l-0.04-4.99zm-32.92 90.1c-1.65 0.31-3.49 0.47-5.48 0.48-12.38 0.02-24.75 0.03-37.13 0.03-8.39 0-16.77-0.01-25.16-0.02-14.33-0.02-25.75-9.43-28.41-23.41-0.31-1.63-0.46-3.42-0.47-5.48-0.03-20.76-0.04-41.52-0.01-62.28 0.02-14.33 9.43-25.74 23.41-28.4 1.66-0.32 3.45-0.46 5.81-0.47 7.69-0.03 15.38-0.02 23.06-0.02h7.84l9.61-0.01c7.21-0.01 14.42-0.02 21.63 0.02 14.24 0.07 25.59 9.47 28.23 23.41 0.31 1.63 0.47 3.41 0.47 5.31 0.03 20.87 0.05 41.74 0.01 62.62-0.03 14.22-9.44 25.56-23.41 28.22z" style="fill-rule:nonzero; stroke:none; fill: currentColor"/>
    
    
        <path d="m742.72 504.48c-0.44 0-0.88 0.01-1.33 0.03-9.1 0.37-17.52 4.19-23.71 10.74-6.17 6.54-9.36 15.01-8.99 23.85 0.39 9.23 4.33 17.73 11.09 23.95 6.49 5.96 14.82 9.05 23.41 8.67 9.32-0.4 17.88-4.36 24.09-11.15 5.94-6.48 9-14.81 8.61-23.44-0.8-18.27-15.55-32.65-33.17-32.65zm-0.29 57.63h-0.09c-6.41 0-12.44-2.49-16.98-7.02-4.56-4.54-7.06-10.57-7.06-16.99 0-13.21 10.75-23.97 23.97-23.99h0.03c13.22 0 23.98 10.72 24.02 23.92 0.02 13.23-10.69 24.04-23.89 24.08z" style="fill-rule:nonzero; stroke:none; fill: currentColor"/>
    
    
        <path d="m780.13 493.7h-0.04c-3.59 0.02-6.61 3.06-6.59 6.63 0.01 1.74 0.71 3.4 1.98 4.66 1.26 1.25 2.9 1.94 4.61 1.94h0.04c3.59-0.02 6.61-3.06 6.59-6.64-0.01-1.74-0.71-3.39-1.98-4.65-1.26-1.26-2.89-1.94-4.61-1.94z" style="fill-rule:nonzero; stroke:none; fill: currentColor"/>
    </g>
</svg>
