<?xml version="1.0" encoding="UTF-8"?>
<svg style="clip-rule:evenodd;fill-rule:evenodd;stroke-linejoin:round;stroke-miterlimit:2" version="1.1" viewBox="0 0 139 139" xml:space="preserve" xmlns="http://www.w3.org/2000/svg">
    <g transform="translate(-450.43 -469.2)">
        <path d="m573.84 469.2h-108.03c-8.48 0-15.38 6.9-15.38 15.38v108.03c0 8.48 6.9 15.38 15.38 15.38h108.03c8.48 0 15.38-6.9 15.38-15.38v-108.03c0-8.48-6.9-15.38-15.38-15.38zm6.45 124.97-41.66-41.66-6.17 6.17 40.59 40.59h-106.83l40.59-40.59-6.17-6.17-41.35 41.35c-0.08-0.41-0.13-0.82-0.13-1.25v-102.5l44.47 44.47c4.46 4.47 10.33 6.7 16.2 6.7s11.73-2.23 16.2-6.7l44.47-44.47v102.49c-0.01 0.55-0.09 1.06-0.21 1.57zm-6.45-116.24c1.8 0 3.42 0.72 4.62 1.88l-48.61 48.61c-5.53 5.53-14.52 5.53-20.05 0l-48.61-48.61c1.2-1.16 2.82-1.88 4.62-1.88h108.03z" style="fill-rule:nonzero;fill:currentColor"/>
    </g>
</svg>
